<?xml version="1.0" encoding="utf-8" standalone="no"?>
<!DOCTYPE svg PUBLIC "-//W3C//DTD SVG 1.1//EN"
  "http://www.w3.org/Graphics/SVG/1.1/DTD/svg11.dtd">
<!-- Created with matplotlib (http://matplotlib.org/) -->
<svg height="448pt" version="1.1" viewBox="0 0 456 448" width="456pt" xmlns="http://www.w3.org/2000/svg" xmlns:xlink="http://www.w3.org/1999/xlink">
 <defs>
  <style type="text/css">
*{stroke-linecap:square;stroke-linejoin:round;}
  </style>
 </defs>
 <g id="figure_1">
  <g id="patch_1">
   <path d="
M0 448.474
L456.731 448.474
L456.731 0
L0 0
z
" style="fill:#ffffff;"/>
  </g>
  <g id="axes_1">
   <g id="patch_2">
    <path d="
M49.9625 403.851
L440.562 403.851
L440.562 13.2512
L49.9625 13.2512
z
" style="fill:#ffffff;"/>
   </g>
   <g id="line2d_1">
    <path clip-path="url(#pcb5ed3f579)" d="
M57.7745 374.344
L65.4303 334.325
L73.086 301.394
L80.7418 273.726
L88.3975 250.113
L96.0533 229.712
L103.709 211.912
L111.365 196.257
L119.021 182.396
L126.676 170.056
L134.332 159.016
L141.988 149.099
L149.644 140.16
L157.299 132.076
L164.955 124.747
L172.611 118.085
L180.267 112.017
L187.922 106.48
L195.578 101.419
L203.234 96.7849
L210.89 92.5367
L218.545 88.6371
L226.201 85.0537
L233.857 81.7574
L241.513 78.7224
L249.169 75.9255
L256.824 73.3463
L264.48 70.9659
L272.136 68.7678
L279.792 66.7366
L287.447 64.8589
L295.103 63.122
L302.759 61.5147
L310.415 60.0266
L318.07 58.6485
L325.726 57.3717
L333.382 56.1884
L341.038 55.0915
L348.693 54.0742
L356.349 53.1307
L364.005 52.2552
L371.661 51.4429
L379.316 50.6888
L386.972 49.9888
L394.628 49.3389
L402.284 48.7353
L409.939 48.1747
L417.595 47.6539
L425.251 47.17
L432.907 46.7204
L440.562 46.3027" style="fill:none;stroke:#000000;"/>
   </g>
   <g id="matplotlib.axis_1">
    <g id="xtick_1">
     <g id="line2d_2">
      <defs>
       <path d="
M0 0
L0 -4" id="mcb557df647" style="stroke:#000000;stroke-linecap:butt;stroke-width:0.5;"/>
      </defs>
      <g>
       <use style="stroke:#000000;stroke-linecap:butt;stroke-width:0.5;" x="49.9625" xlink:href="#mcb557df647" y="403.85125"/>
      </g>
     </g>
     <g id="line2d_3">
      <defs>
       <path d="
M0 0
L0 4" id="mdad270ee8e" style="stroke:#000000;stroke-linecap:butt;stroke-width:0.5;"/>
      </defs>
      <g>
       <use style="stroke:#000000;stroke-linecap:butt;stroke-width:0.5;" x="49.9625" xlink:href="#mdad270ee8e" y="13.25125"/>
      </g>
     </g>
     <g id="text_1">
      <!-- 0 -->
      <defs>
       <path d="
M31.7812 3.42188
Q39.2656 3.42188 42.9688 11.625
Q46.6875 19.8281 46.6875 36.375
Q46.6875 52.9844 42.9688 61.1875
Q39.2656 69.3906 31.7812 69.3906
Q24.3125 69.3906 20.5938 61.1875
Q16.8906 52.9844 16.8906 36.375
Q16.8906 19.8281 20.5938 11.625
Q24.3125 3.42188 31.7812 3.42188
M31.7812 -1.42188
Q19.9219 -1.42188 13.25 8.53125
Q6.59375 18.5 6.59375 36.375
Q6.59375 54.2969 13.25 64.25
Q19.9219 74.2188 31.7812 74.2188
Q43.7031 74.2188 50.3438 64.25
Q56.9844 54.2969 56.9844 36.375
Q56.9844 18.5 50.3438 8.53125
Q43.7031 -1.42188 31.7812 -1.42188" id="BitstreamVeraSerif-Roman-30"/>
      </defs>
      <g transform="translate(45.93125 419.72625)scale(0.16 -0.16)">
       <use xlink:href="#BitstreamVeraSerif-Roman-30"/>
      </g>
     </g>
    </g>
    <g id="xtick_2">
     <g id="line2d_4">
      <g>
       <use style="stroke:#000000;stroke-linecap:butt;stroke-width:0.5;" x="128.0825" xlink:href="#mcb557df647" y="403.85125"/>
      </g>
     </g>
     <g id="line2d_5">
      <g>
       <use style="stroke:#000000;stroke-linecap:butt;stroke-width:0.5;" x="128.0825" xlink:href="#mdad270ee8e" y="13.25125"/>
      </g>
     </g>
     <g id="text_2">
      <!-- 10 -->
      <defs>
       <path d="
M14.2031 0
L14.2031 5.17188
L26.9062 5.17188
L26.9062 65.8281
L12.2031 56.2969
L12.2031 62.7031
L29.9844 74.2188
L36.7188 74.2188
L36.7188 5.17188
L49.4219 5.17188
L49.4219 0
z
" id="BitstreamVeraSerif-Roman-31"/>
      </defs>
      <g transform="translate(119.41 419.72625)scale(0.16 -0.16)">
       <use xlink:href="#BitstreamVeraSerif-Roman-31"/>
       <use x="63.623046875" xlink:href="#BitstreamVeraSerif-Roman-30"/>
      </g>
     </g>
    </g>
    <g id="xtick_3">
     <g id="line2d_6">
      <g>
       <use style="stroke:#000000;stroke-linecap:butt;stroke-width:0.5;" x="206.2025" xlink:href="#mcb557df647" y="403.85125"/>
      </g>
     </g>
     <g id="line2d_7">
      <g>
       <use style="stroke:#000000;stroke-linecap:butt;stroke-width:0.5;" x="206.2025" xlink:href="#mdad270ee8e" y="13.25125"/>
      </g>
     </g>
     <g id="text_3">
      <!-- 20 -->
      <defs>
       <path d="
M12.7969 55.5156
L7.32812 55.5156
L7.32812 68.5
Q12.5469 71.2969 17.8438 72.75
Q23.1406 74.2188 28.2188 74.2188
Q39.5938 74.2188 46.1875 68.7031
Q52.7812 63.1875 52.7812 53.7188
Q52.7812 43.0156 37.8438 28.125
Q36.6719 27 36.0781 26.4219
L17.6719 8.01562
L48.0938 8.01562
L48.0938 17
L53.8125 17
L53.8125 0
L6.78125 0
L6.78125 5.32812
L28.9062 27.3906
Q36.2344 34.7188 39.3594 40.8438
Q42.4844 46.9688 42.4844 53.7188
Q42.4844 61.0781 38.6406 65.2344
Q34.8125 69.3906 28.0781 69.3906
Q21.0938 69.3906 17.2812 65.9219
Q13.4844 62.4531 12.7969 55.5156" id="BitstreamVeraSerif-Roman-32"/>
      </defs>
      <g transform="translate(197.09625 419.72625)scale(0.16 -0.16)">
       <use xlink:href="#BitstreamVeraSerif-Roman-32"/>
       <use x="63.623046875" xlink:href="#BitstreamVeraSerif-Roman-30"/>
      </g>
     </g>
    </g>
    <g id="xtick_4">
     <g id="line2d_8">
      <g>
       <use style="stroke:#000000;stroke-linecap:butt;stroke-width:0.5;" x="284.3225" xlink:href="#mcb557df647" y="403.85125"/>
      </g>
     </g>
     <g id="line2d_9">
      <g>
       <use style="stroke:#000000;stroke-linecap:butt;stroke-width:0.5;" x="284.3225" xlink:href="#mdad270ee8e" y="13.25125"/>
      </g>
     </g>
     <g id="text_4">
      <!-- 30 -->
      <defs>
       <path d="
M9.71875 69.8281
Q15.4375 71.9688 20.6719 73.0938
Q25.9219 74.2188 30.5156 74.2188
Q41.2188 74.2188 47.2188 69.5938
Q53.2188 64.9844 53.2188 56.7812
Q53.2188 50.2031 49.0625 45.7812
Q44.9219 41.3594 37.3125 39.7969
Q46.2969 38.5312 51.25 33.2812
Q56.2031 28.0312 56.2031 19.6719
Q56.2031 9.46875 49.3438 4.01562
Q42.4844 -1.42188 29.5938 -1.42188
Q23.875 -1.42188 18.4219 -0.1875
Q12.9844 1.03125 7.625 3.51562
L7.625 17.6719
L13.0938 17.6719
Q13.5781 10.6406 17.8281 7.03125
Q22.0781 3.42188 29.7812 3.42188
Q37.25 3.42188 41.5781 7.73438
Q45.9062 12.0625 45.9062 19.5781
Q45.9062 28.1719 41.4531 32.5938
Q37.0156 37.0156 28.4219 37.0156
L23.7812 37.0156
L23.7812 42
L26.2188 42
Q34.7656 42 39.0312 45.5312
Q43.3125 49.0781 43.3125 56.2031
Q43.3125 62.5938 39.7969 65.9844
Q36.2812 69.3906 29.6875 69.3906
Q23.0938 69.3906 19.4531 66.2656
Q15.8281 63.1406 15.1875 56.9844
L9.71875 56.9844
z
" id="BitstreamVeraSerif-Roman-33"/>
      </defs>
      <g transform="translate(275.28375 419.72625)scale(0.16 -0.16)">
       <use xlink:href="#BitstreamVeraSerif-Roman-33"/>
       <use x="63.623046875" xlink:href="#BitstreamVeraSerif-Roman-30"/>
      </g>
     </g>
    </g>
    <g id="xtick_5">
     <g id="line2d_10">
      <g>
       <use style="stroke:#000000;stroke-linecap:butt;stroke-width:0.5;" x="362.4425" xlink:href="#mcb557df647" y="403.85125"/>
      </g>
     </g>
     <g id="line2d_11">
      <g>
       <use style="stroke:#000000;stroke-linecap:butt;stroke-width:0.5;" x="362.4425" xlink:href="#mdad270ee8e" y="13.25125"/>
      </g>
     </g>
     <g id="text_5">
      <!-- 40 -->
      <defs>
       <path d="
M34.9062 24.7031
L34.9062 63.4844
L10.0156 24.7031
z

M56.3906 0
L23.1875 0
L23.1875 5.17188
L34.9062 5.17188
L34.9062 19.4844
L3.07812 19.4844
L3.07812 24.8125
L35.0156 74.2188
L44.6719 74.2188
L44.6719 24.7031
L58.5938 24.7031
L58.5938 19.4844
L44.6719 19.4844
L44.6719 5.17188
L56.3906 5.17188
z
" id="BitstreamVeraSerif-Roman-34"/>
      </defs>
      <g transform="translate(353.04 419.72625)scale(0.16 -0.16)">
       <use xlink:href="#BitstreamVeraSerif-Roman-34"/>
       <use x="63.623046875" xlink:href="#BitstreamVeraSerif-Roman-30"/>
      </g>
     </g>
    </g>
    <g id="xtick_6">
     <g id="line2d_12">
      <g>
       <use style="stroke:#000000;stroke-linecap:butt;stroke-width:0.5;" x="440.5625" xlink:href="#mcb557df647" y="403.85125"/>
      </g>
     </g>
     <g id="line2d_13">
      <g>
       <use style="stroke:#000000;stroke-linecap:butt;stroke-width:0.5;" x="440.5625" xlink:href="#mdad270ee8e" y="13.25125"/>
      </g>
     </g>
     <g id="text_6">
      <!-- 50 -->
      <defs>
       <path d="
M50.2969 72.9062
L50.2969 64.8906
L16.8906 64.8906
L16.8906 44
Q19.4375 45.75 22.8281 46.625
Q26.2188 47.5156 30.4219 47.5156
Q42.2344 47.5156 49.0625 40.9688
Q55.9062 34.4219 55.9062 23.0938
Q55.9062 11.5312 49 5.04688
Q42.0938 -1.42188 29.5938 -1.42188
Q24.5625 -1.42188 19.2812 -0.1875
Q14.0156 1.03125 8.5 3.51562
L8.5 17.6719
L14.0156 17.6719
Q14.4531 10.75 18.4219 7.07812
Q22.4062 3.42188 29.5938 3.42188
Q37.3125 3.42188 41.4531 8.5
Q45.6094 13.5781 45.6094 23.0938
Q45.6094 32.5625 41.4844 37.6094
Q37.3594 42.6719 29.5938 42.6719
Q25.2031 42.6719 21.8438 41.1094
Q18.5 39.5469 15.9219 36.2812
L11.7188 36.2812
L11.7188 72.9062
z
" id="BitstreamVeraSerif-Roman-35"/>
      </defs>
      <g transform="translate(431.59375 419.72625)scale(0.16 -0.16)">
       <use xlink:href="#BitstreamVeraSerif-Roman-35"/>
       <use x="63.623046875" xlink:href="#BitstreamVeraSerif-Roman-30"/>
      </g>
     </g>
    </g>
    <g id="text_7">
     <!-- Enriching Stages, $N_P$ -->
     <defs>
      <path d="
M54.2031 25
L15.4844 25
L15.4844 24.6094
Q15.4844 14.1094 19.4375 8.76562
Q23.3906 3.42188 31.1094 3.42188
Q37.0156 3.42188 40.7969 6.51562
Q44.5781 9.625 46.0938 15.7188
L53.3281 15.7188
Q51.1719 7.17188 45.375 2.875
Q39.5938 -1.42188 30.1719 -1.42188
Q18.7969 -1.42188 11.8906 6.07812
Q4.98438 13.5781 4.98438 25.9844
Q4.98438 38.2812 11.7656 45.7969
Q18.5625 53.3281 29.5938 53.3281
Q41.3594 53.3281 47.6562 46.0625
Q53.9531 38.8125 54.2031 25
M43.6094 30.1719
Q43.3125 39.2656 39.7656 43.875
Q36.2344 48.4844 29.5938 48.4844
Q23.3906 48.4844 19.8281 43.8438
Q16.2656 39.2031 15.4844 30.1719
z
" id="BitstreamVeraSerif-Roman-65"/>
      <path d="
M4.6875 0
Q3.71875 0 3.71875 1.3125
Q3.76562 1.5625 3.90625 2.17188
Q4.04688 2.78125 4.3125 3.14062
Q4.59375 3.51562 4.98438 3.51562
Q14.5469 3.51562 16.1094 9.625
L29.6875 64.3125
Q26.9062 64.7969 20.9062 64.7969
Q19.9219 64.7969 19.9219 66.1094
Q19.9688 66.3594 20.1094 66.9688
Q20.2656 67.5781 20.5312 67.9375
Q20.7969 68.3125 21.1875 68.3125
L38.4844 68.3125
Q39.2031 68.3125 39.4062 67.6719
L61.625 14.7969
L72.7031 59.0781
Q72.9062 60.1562 72.9062 60.5938
Q72.9062 64.7969 65.1875 64.7969
Q64.2031 64.7969 64.2031 66.1094
Q64.5469 67.3906 64.7344 67.8438
Q64.9375 68.3125 65.9219 68.3125
L87.3125 68.3125
Q88.2812 68.3125 88.2812 67
Q88.2344 66.75 88.0781 66.1406
Q87.9375 65.5312 87.6719 65.1562
Q87.4062 64.7969 87.0156 64.7969
Q77.4375 64.7969 75.875 58.6875
L61.5312 0.875
Q61.1875 0 60.5 0
L59.2812 0
Q58.5938 0 58.4062 0.6875
L32.9062 61.1875
L32.7188 61.8125
Q32.5156 62.0156 32.5156 62.1094
L19.2812 9.1875
Q19.1875 8.9375 19.1406 8.5625
Q19.0938 8.20312 19 7.71875
Q19 5.125 21.2344 4.3125
Q23.4844 3.51562 26.8125 3.51562
Q27.7812 3.51562 27.7812 2.20312
Q27.4375 0.828125 27.1875 0.40625
Q26.9531 0 26.125 0
z
" id="Cmmi10-4e"/>
      <path d="
M52.4844 46.6875
L52.4844 1.125
Q52.4844 -10.0625 46.3281 -16.1406
Q40.1875 -22.2188 28.8125 -22.2188
Q23.6875 -22.2188 19 -21.2812
Q14.3125 -20.3594 10.0156 -18.5
L10.0156 -7.625
L14.7031 -7.625
Q15.5781 -12.7031 18.8438 -15.0469
Q22.125 -17.3906 28.2188 -17.3906
Q36.1406 -17.3906 39.8125 -12.9219
Q43.5 -8.45312 43.5 1.125
L43.5 8.10938
Q40.875 3.21875 36.7969 0.890625
Q32.7188 -1.42188 26.7031 -1.42188
Q17.1406 -1.42188 11.0625 6.17188
Q4.98438 13.7656 4.98438 25.9844
Q4.98438 38.1875 11.0312 45.75
Q17.0938 53.3281 26.7031 53.3281
Q32.7188 53.3281 36.7969 51
Q40.875 48.6875 43.5 43.7969
L43.5 51.9062
L61.0781 51.9062
L61.0781 46.6875
z

M43.5 28.5156
Q43.5 37.8438 39.9062 42.7656
Q36.3281 47.7031 29.5 47.7031
Q22.5625 47.7031 19.0156 42.2344
Q15.4844 36.7656 15.4844 25.9844
Q15.4844 15.2344 19.0156 9.71875
Q22.5625 4.20312 29.5 4.20312
Q36.3281 4.20312 39.9062 9.10938
Q43.5 14.0156 43.5 23.3906
z
" id="BitstreamVeraSerif-Roman-67"/>
      <path d="
M5.60938 2.875
L5.60938 14.9844
L10.7969 14.9844
Q10.9844 9.1875 14.4219 6.29688
Q17.875 3.42188 24.6094 3.42188
Q30.6719 3.42188 33.8438 5.6875
Q37.0156 7.95312 37.0156 12.3125
Q37.0156 15.7188 34.6875 17.8125
Q32.375 19.9219 24.9062 22.3125
L18.4062 24.5156
Q11.7188 26.6562 8.71875 29.875
Q5.71875 33.1094 5.71875 38.0938
Q5.71875 45.2188 10.9375 49.2656
Q16.1562 53.3281 25.3906 53.3281
Q29.5 53.3281 34.0312 52.25
Q38.5781 51.1719 43.4062 49.125
L43.4062 37.7969
L38.2344 37.7969
Q38.0312 42.8281 34.7031 45.6562
Q31.3906 48.4844 25.6875 48.4844
Q20.0156 48.4844 17.1094 46.4844
Q14.2031 44.4844 14.2031 40.4844
Q14.2031 37.2031 16.4062 35.2188
Q18.6094 33.25 25.2031 31.2031
L32.3281 29
Q39.7031 26.7031 42.9375 23.2656
Q46.1875 19.8281 46.1875 14.4062
Q46.1875 7.03125 40.5469 2.79688
Q34.9062 -1.42188 25 -1.42188
Q19.9688 -1.42188 15.1875 -0.34375
Q10.4062 0.734375 5.60938 2.875" id="BitstreamVeraSerif-Roman-73"/>
      <path d="
M47.7969 52
L47.7969 39.0156
L42.625 39.0156
Q42.3906 42.875 40.4844 44.7812
Q38.5781 46.6875 34.9062 46.6875
Q28.2656 46.6875 24.7188 42.0938
Q21.1875 37.5 21.1875 28.9062
L21.1875 5.17188
L31.5938 5.17188
L31.5938 0
L4.10938 0
L4.10938 5.17188
L12.2031 5.17188
L12.2031 46.7812
L3.60938 46.7812
L3.60938 51.9062
L21.1875 51.9062
L21.1875 42.6719
Q23.8281 48.0938 27.9688 50.7031
Q32.125 53.3281 38.0938 53.3281
Q40.2812 53.3281 42.7031 52.9844
Q45.125 52.6406 47.7969 52" id="BitstreamVeraSerif-Roman-72"/>
      <path d="
M51.4219 15.5781
Q49.5156 7.28125 44.0938 2.92188
Q38.6719 -1.42188 30.0781 -1.42188
Q18.75 -1.42188 11.8594 6.07812
Q4.98438 13.5781 4.98438 25.9844
Q4.98438 38.4219 11.8594 45.875
Q18.75 53.3281 30.0781 53.3281
Q35.0156 53.3281 39.8906 52.1719
Q44.7812 51.0312 49.7031 48.6875
L49.7031 35.4062
L44.4844 35.4062
Q43.4531 42.2344 40.0156 45.3594
Q36.5781 48.4844 30.1719 48.4844
Q22.9062 48.4844 19.1875 42.8438
Q15.4844 37.2031 15.4844 25.9844
Q15.4844 14.75 19.1719 9.07812
Q22.8594 3.42188 30.1719 3.42188
Q35.9844 3.42188 39.4531 6.4375
Q42.9219 9.46875 44.1875 15.5781
z
" id="BitstreamVeraSerif-Roman-63"/>
      <path id="BitstreamVeraSerif-Roman-20"/>
      <path d="
M3.60938 -9.71875
Q8.20312 -6.34375 10.3438 -1.78125
Q12.5 2.78125 12.5 9.28125
L12.5 11.0781
L22.125 11.0781
Q21.7344 2.73438 18.1875 -3.25
Q14.6562 -9.23438 7.51562 -13.625
z
" id="BitstreamVeraSerif-Roman-2c"/>
      <path d="
M4.10938 0
L4.10938 5.17188
L12.2031 5.17188
L12.2031 70.7969
L3.60938 70.7969
L3.60938 75.9844
L21.1875 75.9844
L21.1875 42.6719
Q23.6875 47.9531 27.6562 50.6406
Q31.6406 53.3281 36.9219 53.3281
Q45.5156 53.3281 49.5625 48.3906
Q53.6094 43.4531 53.6094 33.0156
L53.6094 5.17188
L61.625 5.17188
L61.625 0
L36.8125 0
L36.8125 5.17188
L44.5781 5.17188
L44.5781 30.1719
Q44.5781 39.7031 42.25 43.1875
Q39.9375 46.6875 33.9844 46.6875
Q27.7344 46.6875 24.4531 42.1406
Q21.1875 37.5938 21.1875 28.9062
L21.1875 5.17188
L29 5.17188
L29 0
z
" id="BitstreamVeraSerif-Roman-68"/>
      <path d="
M9.71875 68.0156
Q9.71875 70.2656 11.3438 71.9219
Q12.9844 73.5781 15.2812 73.5781
Q17.5312 73.5781 19.1562 71.9219
Q20.7969 70.2656 20.7969 68.0156
Q20.7969 65.7188 19.1875 64.1094
Q17.5781 62.5 15.2812 62.5
Q12.9844 62.5 11.3438 64.1094
Q9.71875 65.7188 9.71875 68.0156
M21.1875 5.17188
L29.6875 5.17188
L29.6875 0
L3.60938 0
L3.60938 5.17188
L12.2031 5.17188
L12.2031 46.6875
L3.60938 46.6875
L3.60938 51.9062
L21.1875 51.9062
z
" id="BitstreamVeraSerif-Roman-69"/>
      <path d="
M4.10938 0
L4.10938 5.17188
L12.2031 5.17188
L12.2031 46.6875
L3.60938 46.6875
L3.60938 51.9062
L21.1875 51.9062
L21.1875 42.6719
Q23.6875 47.9531 27.6562 50.6406
Q31.6406 53.3281 36.9219 53.3281
Q45.5156 53.3281 49.5625 48.3906
Q53.6094 43.4531 53.6094 33.0156
L53.6094 5.17188
L61.625 5.17188
L61.625 0
L36.8125 0
L36.8125 5.17188
L44.5781 5.17188
L44.5781 30.1719
Q44.5781 39.7031 42.2344 43.2344
Q39.8906 46.7812 33.9844 46.7812
Q27.7344 46.7812 24.4531 42.2031
Q21.1875 37.6406 21.1875 28.9062
L21.1875 5.17188
L29 5.17188
L29 0
z
" id="BitstreamVeraSerif-Roman-6e"/>
      <path d="
M10.7969 46.6875
L2.875 46.6875
L2.875 51.9062
L10.7969 51.9062
L10.7969 68.0156
L19.8281 68.0156
L19.8281 51.9062
L36.7188 51.9062
L36.7188 46.6875
L19.8281 46.6875
L19.8281 13.7188
Q19.8281 7.125 21.0938 5.26562
Q22.3594 3.42188 25.7812 3.42188
Q29.2969 3.42188 30.9062 5.48438
Q32.5156 7.5625 32.625 12.2031
L39.4062 12.2031
Q39.0156 5.125 35.5469 1.84375
Q32.0781 -1.42188 25 -1.42188
Q17.2344 -1.42188 14.0156 2.01562
Q10.7969 5.46875 10.7969 13.7188
z
" id="BitstreamVeraSerif-Roman-74"/>
      <path d="
M4.89062 0
Q3.90625 0 3.90625 1.3125
Q3.95312 1.5625 4.09375 2.17188
Q4.25 2.78125 4.51562 3.14062
Q4.78125 3.51562 5.17188 3.51562
Q11.2812 3.51562 13.7188 4.20312
Q14.9844 4.64062 15.5781 6.89062
L29.2969 61.8125
Q29.5 62.7969 29.5 63.1875
Q29.5 64.2656 28.3281 64.4062
Q26.4219 64.7969 21.0938 64.7969
Q20.125 64.7969 20.125 66.1094
Q20.1719 66.3594 20.3125 66.9688
Q20.4531 67.5781 20.7188 67.9375
Q21 68.3125 21.3906 68.3125
L55.9062 68.3125
Q60.6406 68.3125 65.0781 66.625
Q69.5312 64.9375 72.3594 61.4688
Q75.2031 58.0156 75.2031 53.0781
Q75.2031 46.7344 70.7344 41.75
Q66.2656 36.7656 59.5938 33.9844
Q52.9375 31.2031 46.6875 31.2031
L30.4219 31.2031
L24.3125 6.5
Q24.125 5.51562 24.125 5.07812
Q24.125 4.6875 24.2344 4.42188
Q24.3594 4.15625 24.5781 4.07812
Q24.8125 4 25.2969 3.90625
Q27.2031 3.51562 32.5156 3.51562
Q33.5 3.51562 33.5 2.20312
Q33.1562 0.78125 32.9531 0.390625
Q32.7656 0 31.7812 0
z

M30.9062 34.1875
L44.9219 34.1875
Q54.6406 34.1875 59.7188 39.4062
Q62.3125 42 63.9375 46.875
Q65.5781 51.7656 65.5781 55.7188
Q65.5781 60.6406 61.8125 62.7188
Q58.0625 64.7969 52.4844 64.7969
L42.9219 64.7969
Q40.1875 64.7969 39.2969 64.3281
Q38.4219 63.875 37.7031 61.375
z
" id="Cmmi10-50"/>
      <path d="
M9.28125 3.51562
L9.28125 20.125
L14.8906 20.0625
Q15.1406 11.7656 19.7031 7.78125
Q24.2656 3.8125 33.5938 3.8125
Q42.2812 3.8125 46.8438 7.25
Q51.4219 10.6875 51.4219 17.2812
Q51.4219 22.5625 48.6562 25.3906
Q45.9062 28.2188 37.0156 30.9062
L27.3906 33.7969
Q16.9375 36.9688 12.6719 41.7031
Q8.40625 46.4375 8.40625 54.6875
Q8.40625 63.9688 14.9844 69.0938
Q21.5781 74.2188 33.5 74.2188
Q38.5781 74.2188 44.625 73.1094
Q50.6875 72.0156 57.5156 69.9219
L57.5156 54.3906
L52 54.3906
Q51.1719 62.1094 46.8438 65.5469
Q42.5312 69 33.6875 69
Q25.9844 69 21.9531 65.8438
Q17.9219 62.7031 17.9219 56.6875
Q17.9219 51.4688 20.9375 48.4844
Q23.9688 45.5156 33.7969 42.5781
L42.8281 39.8906
Q52.7344 36.9219 56.9531 32.2969
Q61.1875 27.6875 61.1875 19.9219
Q61.1875 9.32812 54.3906 3.95312
Q47.6094 -1.42188 34.1875 -1.42188
Q28.1719 -1.42188 21.9375 -0.1875
Q15.7188 1.03125 9.28125 3.51562" id="BitstreamVeraSerif-Roman-53"/>
      <path d="
M5.51562 0
L5.51562 5.17188
L14.7969 5.17188
L14.7969 67.6719
L5.51562 67.6719
L5.51562 72.9062
L64.2031 72.9062
L64.2031 56.6875
L58.2031 56.6875
L58.2031 66.8906
L24.7031 66.8906
L24.7031 42.4844
L48.5781 42.4844
L48.5781 51.6094
L54.5938 51.6094
L54.5938 27.3906
L48.5781 27.3906
L48.5781 36.5312
L24.7031 36.5312
L24.7031 6
L58.9844 6
L58.9844 16.2188
L64.9844 16.2188
L64.9844 0
z
" id="BitstreamVeraSerif-Roman-45"/>
      <path d="
M39.7969 16.3125
L39.7969 27.2969
L28.2188 27.2969
Q21.5312 27.2969 18.25 24.4062
Q14.9844 21.5312 14.9844 15.5781
Q14.9844 10.1562 18.2969 6.98438
Q21.625 3.8125 27.2969 3.8125
Q32.9062 3.8125 36.3438 7.28125
Q39.7969 10.75 39.7969 16.3125
M48.7812 32.4219
L48.7812 5.17188
L56.7812 5.17188
L56.7812 0
L39.7969 0
L39.7969 5.60938
Q36.8125 2 32.9062 0.28125
Q29 -1.42188 23.7812 -1.42188
Q15.1406 -1.42188 10.0625 3.17188
Q4.98438 7.76562 4.98438 15.5781
Q4.98438 23.6406 10.7969 28.0781
Q16.6094 32.5156 27.2031 32.5156
L39.7969 32.5156
L39.7969 36.0781
Q39.7969 42 36.2031 45.2344
Q32.625 48.4844 26.125 48.4844
Q20.75 48.4844 17.5781 46.0469
Q14.4062 43.6094 13.625 38.8125
L8.98438 38.8125
L8.98438 49.3125
Q13.6719 51.3125 18.0938 52.3125
Q22.5156 53.3281 26.7031 53.3281
Q37.5 53.3281 43.1406 47.9688
Q48.7812 42.625 48.7812 32.4219" id="BitstreamVeraSerif-Roman-61"/>
     </defs>
     <g transform="translate(158.7825 441.27375)scale(0.16 -0.16)">
      <use transform="translate(0.0 26.015625)" xlink:href="#BitstreamVeraSerif-Roman-45"/>
      <use transform="translate(72.998046875 26.015625)" xlink:href="#BitstreamVeraSerif-Roman-6e"/>
      <use transform="translate(137.40234375 26.015625)" xlink:href="#BitstreamVeraSerif-Roman-72"/>
      <use transform="translate(185.205078125 26.015625)" xlink:href="#BitstreamVeraSerif-Roman-69"/>
      <use transform="translate(217.1875 26.015625)" xlink:href="#BitstreamVeraSerif-Roman-63"/>
      <use transform="translate(273.193359375 26.015625)" xlink:href="#BitstreamVeraSerif-Roman-68"/>
      <use transform="translate(337.59765625 26.015625)" xlink:href="#BitstreamVeraSerif-Roman-69"/>
      <use transform="translate(369.580078125 26.015625)" xlink:href="#BitstreamVeraSerif-Roman-6e"/>
      <use transform="translate(433.984375 26.015625)" xlink:href="#BitstreamVeraSerif-Roman-67"/>
      <use transform="translate(497.998046875 26.015625)" xlink:href="#BitstreamVeraSerif-Roman-20"/>
      <use transform="translate(529.78515625 26.015625)" xlink:href="#BitstreamVeraSerif-Roman-53"/>
      <use transform="translate(598.291015625 26.015625)" xlink:href="#BitstreamVeraSerif-Roman-74"/>
      <use transform="translate(638.4765625 26.015625)" xlink:href="#BitstreamVeraSerif-Roman-61"/>
      <use transform="translate(698.095703125 26.015625)" xlink:href="#BitstreamVeraSerif-Roman-67"/>
      <use transform="translate(762.109375 26.015625)" xlink:href="#BitstreamVeraSerif-Roman-65"/>
      <use transform="translate(821.2890625 26.015625)" xlink:href="#BitstreamVeraSerif-Roman-73"/>
      <use transform="translate(872.607421875 26.015625)" xlink:href="#BitstreamVeraSerif-Roman-2c"/>
      <use transform="translate(904.39453125 26.015625)" xlink:href="#BitstreamVeraSerif-Roman-20"/>
      <use transform="translate(936.181640625 26.015625)" xlink:href="#Cmmi10-4e"/>
      <use transform="translate(1016.50390625 0.50625)scale(0.7)" xlink:href="#Cmmi10-50"/>
     </g>
    </g>
   </g>
   <g id="matplotlib.axis_2">
    <g id="ytick_1">
     <g id="line2d_14">
      <defs>
       <path d="
M0 0
L4 0" id="mc8fcea1516" style="stroke:#000000;stroke-linecap:butt;stroke-width:0.5;"/>
      </defs>
      <g>
       <use style="stroke:#000000;stroke-linecap:butt;stroke-width:0.5;" x="49.9625" xlink:href="#mc8fcea1516" y="403.85125"/>
      </g>
     </g>
     <g id="line2d_15">
      <defs>
       <path d="
M0 0
L-4 0" id="m0d5b0a6425" style="stroke:#000000;stroke-linecap:butt;stroke-width:0.5;"/>
      </defs>
      <g>
       <use style="stroke:#000000;stroke-linecap:butt;stroke-width:0.5;" x="440.5625" xlink:href="#m0d5b0a6425" y="403.85125"/>
      </g>
     </g>
     <g id="text_8">
      <!-- 0 -->
      <g transform="translate(37.9 409.675)scale(0.16 -0.16)">
       <use xlink:href="#BitstreamVeraSerif-Roman-30"/>
      </g>
     </g>
    </g>
    <g id="ytick_2">
     <g id="line2d_16">
      <g>
       <use style="stroke:#000000;stroke-linecap:butt;stroke-width:0.5;" x="49.9625" xlink:href="#mc8fcea1516" y="360.45125"/>
      </g>
     </g>
     <g id="line2d_17">
      <g>
       <use style="stroke:#000000;stroke-linecap:butt;stroke-width:0.5;" x="440.5625" xlink:href="#m0d5b0a6425" y="360.45125"/>
      </g>
     </g>
     <g id="text_9">
      <!-- 2 -->
      <g transform="translate(38.4375 366.38875)scale(0.16 -0.16)">
       <use xlink:href="#BitstreamVeraSerif-Roman-32"/>
      </g>
     </g>
    </g>
    <g id="ytick_3">
     <g id="line2d_18">
      <g>
       <use style="stroke:#000000;stroke-linecap:butt;stroke-width:0.5;" x="49.9625" xlink:href="#mc8fcea1516" y="317.05125"/>
      </g>
     </g>
     <g id="line2d_19">
      <g>
       <use style="stroke:#000000;stroke-linecap:butt;stroke-width:0.5;" x="440.5625" xlink:href="#m0d5b0a6425" y="317.05125"/>
      </g>
     </g>
     <g id="text_10">
      <!-- 4 -->
      <g transform="translate(37.08 322.98875)scale(0.16 -0.16)">
       <use xlink:href="#BitstreamVeraSerif-Roman-34"/>
      </g>
     </g>
    </g>
    <g id="ytick_4">
     <g id="line2d_20">
      <g>
       <use style="stroke:#000000;stroke-linecap:butt;stroke-width:0.5;" x="49.9625" xlink:href="#mc8fcea1516" y="273.65125"/>
      </g>
     </g>
     <g id="line2d_21">
      <g>
       <use style="stroke:#000000;stroke-linecap:butt;stroke-width:0.5;" x="440.5625" xlink:href="#m0d5b0a6425" y="273.65125"/>
      </g>
     </g>
     <g id="text_11">
      <!-- 6 -->
      <defs>
       <path d="
M32.7188 3.42188
Q39.5938 3.42188 43.2969 8.46875
Q47.0156 13.5312 47.0156 23
Q47.0156 32.4688 43.2969 37.5156
Q39.5938 42.5781 32.7188 42.5781
Q25.7344 42.5781 22.0625 37.6875
Q18.4062 32.8125 18.4062 23.5781
Q18.4062 13.875 22.1094 8.64062
Q25.8281 3.42188 32.7188 3.42188
M16.7969 40.1406
Q20.125 43.7969 24.3125 45.5938
Q28.5156 47.4062 33.7969 47.4062
Q44.6719 47.4062 51 40.8594
Q57.3281 34.3281 57.3281 23
Q57.3281 11.9219 50.5156 5.25
Q43.7031 -1.42188 32.3281 -1.42188
Q19.9688 -1.42188 13.3281 7.78125
Q6.6875 17 6.6875 34.0781
Q6.6875 53.2188 14.5469 63.7188
Q22.4062 74.2188 36.7188 74.2188
Q40.5781 74.2188 44.8281 73.4844
Q49.0781 72.75 53.5156 71.2969
L53.5156 59.2812
L48 59.2812
Q47.4062 64.2031 44.2344 66.7969
Q41.0625 69.3906 35.6875 69.3906
Q26.2188 69.3906 21.5781 62.2031
Q16.9375 55.0312 16.7969 40.1406" id="BitstreamVeraSerif-Roman-36"/>
      </defs>
      <g transform="translate(37.86 279.475)scale(0.16 -0.16)">
       <use xlink:href="#BitstreamVeraSerif-Roman-36"/>
      </g>
     </g>
    </g>
    <g id="ytick_5">
     <g id="line2d_22">
      <g>
       <use style="stroke:#000000;stroke-linecap:butt;stroke-width:0.5;" x="49.9625" xlink:href="#mc8fcea1516" y="230.25125"/>
      </g>
     </g>
     <g id="line2d_23">
      <g>
       <use style="stroke:#000000;stroke-linecap:butt;stroke-width:0.5;" x="440.5625" xlink:href="#m0d5b0a6425" y="230.25125"/>
      </g>
     </g>
     <g id="text_12">
      <!-- 8 -->
      <defs>
       <path d="
M46.5781 19.9219
Q46.5781 27.7344 42.6875 32.0469
Q38.8125 36.375 31.7812 36.375
Q24.75 36.375 20.875 32.0469
Q17 27.7344 17 19.9219
Q17 12.0625 20.875 7.73438
Q24.75 3.42188 31.7812 3.42188
Q38.8125 3.42188 42.6875 7.73438
Q46.5781 12.0625 46.5781 19.9219
M44.5781 55.3281
Q44.5781 61.9688 41.2031 65.6719
Q37.8438 69.3906 31.7812 69.3906
Q25.7812 69.3906 22.3906 65.6719
Q19 61.9688 19 55.3281
Q19 48.6406 22.3906 44.9219
Q25.7812 41.2188 31.7812 41.2188
Q37.8438 41.2188 41.2031 44.9219
Q44.5781 48.6406 44.5781 55.3281
M39.3125 38.8125
Q47.6094 37.7031 52.25 32.6875
Q56.8906 27.6875 56.8906 19.9219
Q56.8906 9.67188 50.3906 4.125
Q43.8906 -1.42188 31.7812 -1.42188
Q19.7344 -1.42188 13.2031 4.125
Q6.6875 9.67188 6.6875 19.9219
Q6.6875 27.6875 11.3281 32.6875
Q15.9688 37.7031 24.3125 38.8125
Q16.9375 40.1406 13 44.4062
Q9.07812 48.6875 9.07812 55.3281
Q9.07812 64.1094 15.125 69.1562
Q21.1875 74.2188 31.7812 74.2188
Q42.3906 74.2188 48.4375 69.1562
Q54.5 64.1094 54.5 55.3281
Q54.5 48.6875 50.5625 44.4062
Q46.625 40.1406 39.3125 38.8125" id="BitstreamVeraSerif-Roman-38"/>
      </defs>
      <g transform="translate(37.93 236.075)scale(0.16 -0.16)">
       <use xlink:href="#BitstreamVeraSerif-Roman-38"/>
      </g>
     </g>
    </g>
    <g id="ytick_6">
     <g id="line2d_24">
      <g>
       <use style="stroke:#000000;stroke-linecap:butt;stroke-width:0.5;" x="49.9625" xlink:href="#mc8fcea1516" y="186.85125"/>
      </g>
     </g>
     <g id="line2d_25">
      <g>
       <use style="stroke:#000000;stroke-linecap:butt;stroke-width:0.5;" x="440.5625" xlink:href="#m0d5b0a6425" y="186.85125"/>
      </g>
     </g>
     <g id="text_13">
      <!-- 10 -->
      <g transform="translate(28.6175 192.675)scale(0.16 -0.16)">
       <use xlink:href="#BitstreamVeraSerif-Roman-31"/>
       <use x="63.623046875" xlink:href="#BitstreamVeraSerif-Roman-30"/>
      </g>
     </g>
    </g>
    <g id="ytick_7">
     <g id="line2d_26">
      <g>
       <use style="stroke:#000000;stroke-linecap:butt;stroke-width:0.5;" x="49.9625" xlink:href="#mc8fcea1516" y="143.45125"/>
      </g>
     </g>
     <g id="line2d_27">
      <g>
       <use style="stroke:#000000;stroke-linecap:butt;stroke-width:0.5;" x="440.5625" xlink:href="#m0d5b0a6425" y="143.45125"/>
      </g>
     </g>
     <g id="text_14">
      <!-- 12 -->
      <g transform="translate(29.125 149.38875)scale(0.16 -0.16)">
       <use xlink:href="#BitstreamVeraSerif-Roman-31"/>
       <use x="63.623046875" xlink:href="#BitstreamVeraSerif-Roman-32"/>
      </g>
     </g>
    </g>
    <g id="ytick_8">
     <g id="line2d_28">
      <g>
       <use style="stroke:#000000;stroke-linecap:butt;stroke-width:0.5;" x="49.9625" xlink:href="#mc8fcea1516" y="100.05125"/>
      </g>
     </g>
     <g id="line2d_29">
      <g>
       <use style="stroke:#000000;stroke-linecap:butt;stroke-width:0.5;" x="440.5625" xlink:href="#m0d5b0a6425" y="100.05125"/>
      </g>
     </g>
     <g id="text_15">
      <!-- 14 -->
      <g transform="translate(28.36 105.98875)scale(0.16 -0.16)">
       <use xlink:href="#BitstreamVeraSerif-Roman-31"/>
       <use x="63.623046875" xlink:href="#BitstreamVeraSerif-Roman-34"/>
      </g>
     </g>
    </g>
    <g id="ytick_9">
     <g id="line2d_30">
      <g>
       <use style="stroke:#000000;stroke-linecap:butt;stroke-width:0.5;" x="49.9625" xlink:href="#mc8fcea1516" y="56.65125"/>
      </g>
     </g>
     <g id="line2d_31">
      <g>
       <use style="stroke:#000000;stroke-linecap:butt;stroke-width:0.5;" x="440.5625" xlink:href="#m0d5b0a6425" y="56.65125"/>
      </g>
     </g>
     <g id="text_16">
      <!-- 16 -->
      <g transform="translate(28.5625 62.475)scale(0.16 -0.16)">
       <use xlink:href="#BitstreamVeraSerif-Roman-31"/>
       <use x="63.623046875" xlink:href="#BitstreamVeraSerif-Roman-36"/>
      </g>
     </g>
    </g>
    <g id="ytick_10">
     <g id="line2d_32">
      <g>
       <use style="stroke:#000000;stroke-linecap:butt;stroke-width:0.5;" x="49.9625" xlink:href="#mc8fcea1516" y="13.25125"/>
      </g>
     </g>
     <g id="line2d_33">
      <g>
       <use style="stroke:#000000;stroke-linecap:butt;stroke-width:0.5;" x="440.5625" xlink:href="#m0d5b0a6425" y="13.25125"/>
      </g>
     </g>
     <g id="text_17">
      <!-- 18 -->
      <g transform="translate(28.6325 19.075)scale(0.16 -0.16)">
       <use xlink:href="#BitstreamVeraSerif-Roman-31"/>
       <use x="63.623046875" xlink:href="#BitstreamVeraSerif-Roman-38"/>
      </g>
     </g>
    </g>
    <g id="text_18">
     <!-- Stripping Stages, $N_T$ -->
     <defs>
      <path d="
M4.59375 1.3125
Q4.64062 1.5625 4.8125 2.1875
Q4.98438 2.82812 5.25 3.17188
Q5.51562 3.51562 6 3.51562
Q14.5938 3.51562 17.3906 4
Q20.0625 4.6875 20.6094 6.89062
L34.2812 61.8125
Q34.7188 63.0312 34.7188 64.0156
Q34.7188 64.7969 31.2031 64.7969
L25.3906 64.7969
Q18.7031 64.7969 15.0625 62.7344
Q11.4219 60.6875 9.71875 57.3125
Q8.01562 53.9531 5.32812 46.2969
Q4.98438 45.4062 4.29688 45.4062
L3.42188 45.4062
Q2.39062 45.4062 2.39062 46.6875
L9.51562 67.3906
Q9.71875 68.3125 10.5 68.3125
L69.5781 68.3125
Q70.6094 68.3125 70.6094 67
L67.2812 46.2969
Q67.2812 46 66.9375 45.7031
Q66.6094 45.4062 66.3125 45.4062
L65.375 45.4062
Q64.4062 45.4062 64.4062 46.6875
Q65.4844 53.7656 65.4844 56.6875
Q65.4844 60.2031 64.0156 62
Q62.5469 63.8125 60.2031 64.2969
Q57.8594 64.7969 54.1094 64.7969
L48.1875 64.7969
Q45.5156 64.7969 44.5781 64.2969
Q43.6562 63.8125 43.0156 61.375
L29.2969 6.5
Q29.25 6.29688 29.2188 6.09375
Q29.2031 5.90625 29.1094 5.60938
Q29.1094 4.34375 30.6094 4
Q33.2031 3.51562 41.7031 3.51562
Q42.6719 3.51562 42.6719 2.20312
Q42.3281 0.78125 42.125 0.390625
Q41.9375 0 41.0156 0
L5.60938 0
Q4.59375 0 4.59375 1.3125" id="Cmmi10-54"/>
      <path d="
M20.5156 28.5156
L20.5156 23.3906
Q20.5156 14.0156 24.0938 9.10938
Q27.6875 4.20312 34.5156 4.20312
Q41.4062 4.20312 44.9375 9.71875
Q48.4844 15.2344 48.4844 25.9844
Q48.4844 36.7656 44.9375 42.2344
Q41.4062 47.7031 34.5156 47.7031
Q27.6875 47.7031 24.0938 42.7656
Q20.5156 37.8438 20.5156 28.5156
M11.5312 46.6875
L2.875 46.6875
L2.875 51.9062
L20.5156 51.9062
L20.5156 43.7969
Q23.1406 48.6875 27.2188 51
Q31.2969 53.3281 37.3125 53.3281
Q46.875 53.3281 52.9219 45.75
Q58.9844 38.1875 58.9844 25.9844
Q58.9844 13.7656 52.9219 6.17188
Q46.875 -1.42188 37.3125 -1.42188
Q31.2969 -1.42188 27.2188 0.890625
Q23.1406 3.21875 20.5156 8.10938
L20.5156 -15.5781
L29 -15.5781
L29 -20.7969
L2.875 -20.7969
L2.875 -15.5781
L11.5312 -15.5781
z
" id="BitstreamVeraSerif-Roman-70"/>
     </defs>
     <g transform="translate(23.36 292.87125)rotate(-90.0)scale(0.16 -0.16)">
      <use transform="translate(0.0 26.78125)" xlink:href="#BitstreamVeraSerif-Roman-53"/>
      <use transform="translate(68.505859375 26.78125)" xlink:href="#BitstreamVeraSerif-Roman-74"/>
      <use transform="translate(108.69140625 26.78125)" xlink:href="#BitstreamVeraSerif-Roman-72"/>
      <use transform="translate(156.494140625 26.78125)" xlink:href="#BitstreamVeraSerif-Roman-69"/>
      <use transform="translate(188.4765625 26.78125)" xlink:href="#BitstreamVeraSerif-Roman-70"/>
      <use transform="translate(252.490234375 26.78125)" xlink:href="#BitstreamVeraSerif-Roman-70"/>
      <use transform="translate(316.50390625 26.78125)" xlink:href="#BitstreamVeraSerif-Roman-69"/>
      <use transform="translate(348.486328125 26.78125)" xlink:href="#BitstreamVeraSerif-Roman-6e"/>
      <use transform="translate(412.890625 26.78125)" xlink:href="#BitstreamVeraSerif-Roman-67"/>
      <use transform="translate(476.904296875 26.78125)" xlink:href="#BitstreamVeraSerif-Roman-20"/>
      <use transform="translate(508.69140625 26.78125)" xlink:href="#BitstreamVeraSerif-Roman-53"/>
      <use transform="translate(577.197265625 26.78125)" xlink:href="#BitstreamVeraSerif-Roman-74"/>
      <use transform="translate(617.3828125 26.78125)" xlink:href="#BitstreamVeraSerif-Roman-61"/>
      <use transform="translate(677.001953125 26.78125)" xlink:href="#BitstreamVeraSerif-Roman-67"/>
      <use transform="translate(741.015625 26.78125)" xlink:href="#BitstreamVeraSerif-Roman-65"/>
      <use transform="translate(800.1953125 26.78125)" xlink:href="#BitstreamVeraSerif-Roman-73"/>
      <use transform="translate(851.513671875 26.78125)" xlink:href="#BitstreamVeraSerif-Roman-2c"/>
      <use transform="translate(883.30078125 26.78125)" xlink:href="#BitstreamVeraSerif-Roman-20"/>
      <use transform="translate(915.087890625 26.78125)" xlink:href="#Cmmi10-4e"/>
      <use transform="translate(995.41015625 1.271875)scale(0.7)" xlink:href="#Cmmi10-54"/>
     </g>
    </g>
   </g>
   <g id="patch_3">
    <path d="
M49.9625 13.2512
L440.562 13.2512" style="fill:none;stroke:#000000;"/>
   </g>
   <g id="patch_4">
    <path d="
M440.562 403.851
L440.562 13.2512" style="fill:none;stroke:#000000;"/>
   </g>
   <g id="patch_5">
    <path d="
M49.9625 403.851
L440.562 403.851" style="fill:none;stroke:#000000;"/>
   </g>
   <g id="patch_6">
    <path d="
M49.9625 403.851
L49.9625 13.2512" style="fill:none;stroke:#000000;"/>
   </g>
  </g>
 </g>
 <defs>
  <clipPath id="pcb5ed3f579">
   <rect height="390.6" width="390.6" x="49.9625" y="13.25125"/>
  </clipPath>
 </defs>
</svg>
